<svg xmlns="http://www.w3.org/2000/svg" xmlns:xlink="http://www.w3.org/1999/xlink" width="949.584" height="230.999" viewBox="0 0 949.584 230.999">
  <defs>
    <linearGradient id="linear-gradient" y1="0.5" x2="1" y2="0.5" gradientUnits="objectBoundingBox">
      <stop offset="0" stop-color="#006bab"/>
      <stop offset="0.25" stop-color="#73ae2b"/>
      <stop offset="0.5" stop-color="#f5e422"/>
      <stop offset="0.551" stop-color="#f4df20"/>
      <stop offset="0.605" stop-color="#f2d31d"/>
      <stop offset="0.659" stop-color="#f0be18"/>
      <stop offset="0.713" stop-color="#eca110"/>
      <stop offset="0.75" stop-color="#ea8a0a"/>
      <stop offset="1" stop-color="#da0e1c"/>
    </linearGradient>
    <radialGradient id="radial-gradient" cx="0.5" cy="0.5" r="0.498" gradientTransform="translate(0.063 0.235) scale(1.034 0.978)" gradientUnits="objectBoundingBox">
      <stop offset="0" stop-color="#fff"/>
      <stop offset="1" stop-color="#fff"/>
    </radialGradient>
    <linearGradient id="linear-gradient-2" x1="-2.871" y1="15.966" x2="-2.607" y2="16.89" gradientUnits="objectBoundingBox">
      <stop offset="0" stop-color="#fff" stop-opacity="0"/>
      <stop offset="0.203" stop-color="#fcfcfc" stop-opacity="0.024"/>
      <stop offset="0.369" stop-color="#f4f4f4" stop-opacity="0.094"/>
      <stop offset="0.523" stop-color="#e6e6e6" stop-opacity="0.216"/>
      <stop offset="0.668" stop-color="#d2d2d3" stop-opacity="0.384"/>
      <stop offset="0.809" stop-color="#b9b8ba" stop-opacity="0.604"/>
      <stop offset="0.943" stop-color="#9a9a9c" stop-opacity="0.871"/>
      <stop offset="1" stop-color="#8c8b8e"/>
    </linearGradient>
    <radialGradient id="radial-gradient-2" cx="0.024" cy="0.042" r="1.374" gradientTransform="translate(2.648 4.506) rotate(-90) scale(1 0.863)" gradientUnits="objectBoundingBox">
      <stop offset="0" stop-color="#a9abad"/>
      <stop offset="1" stop-color="#fff"/>
    </radialGradient>
  </defs>
  <g id="icCompleto" transform="translate(-620.206 -22)">
    <path id="Trazado_8" data-name="Trazado 8" d="M935.661,156.817a4.936,4.936,0,0,1,.931,4.619,10.855,10.855,0,0,1-3.166,4.847,62.011,62.011,0,0,1-16.516,10.639,54.307,54.307,0,0,1-23.223,4.847,43.132,43.132,0,0,1-17.187-3.116,29.261,29.261,0,0,1-11.6-8.663,28.678,28.678,0,0,1-5.737-12.94,38.034,38.034,0,0,1,.62-15.7l6.428-27.263a55.122,55.122,0,0,1,6.463-15.83A50.508,50.508,0,0,1,883.823,85.21a52.648,52.648,0,0,1,15.127-8.789,51.339,51.339,0,0,1,18.444-3.231,40.811,40.811,0,0,1,17.043,3.233,29.457,29.457,0,0,1,11.345,8.782,28.341,28.341,0,0,1,5.467,13.048,40.661,40.661,0,0,1-.767,15.83l-3.264,13.856a8.6,8.6,0,0,1-8.764,6.936h-53.4a2.722,2.722,0,0,0-2.922,2.31l-.978,4.161q-2.068,8.776,1.851,14.785t15.317,6.008a30.581,30.581,0,0,0,14.738-3.126,54.463,54.463,0,0,0,8.992-5.883,9.014,9.014,0,0,1,5.795-2.431,5.5,5.5,0,0,1,4.225,2.187Zm-6.544-42.734q2.079-8.789-1.437-15.022t-14.916-6.235q-11.165,0-17.137,6.235a31.9,31.9,0,0,0-8.045,15.022l-.28,1.15c-.359,1.537.244,2.31,1.828,2.31H925.94a2.7,2.7,0,0,0,2.9-2.31Z" transform="translate(94.725 20.332)" fill="#d50820"/>
    <path id="Trazado_9" data-name="Trazado 9" d="M994.615,158.9a4.68,4.68,0,0,1,.816,4.628,11.918,11.918,0,0,1-3.3,4.847,58.641,58.641,0,0,1-14.582,9.008,47.774,47.774,0,0,1-20.375,4.389,41.521,41.521,0,0,1-17.606-3.345,28.7,28.7,0,0,1-11.295-9.008,28.086,28.086,0,0,1-5.051-13.285,45.119,45.119,0,0,1,1.038-15.945l5.989-25.41a52.6,52.6,0,0,1,6.724-15.945,53.657,53.657,0,0,1,11.686-13.284,56.742,56.742,0,0,1,15.528-9.008,50.9,50.9,0,0,1,18.6-3.354,37.134,37.134,0,0,1,16.532,3.353,30.412,30.412,0,0,1,10.649,8.192,5.4,5.4,0,0,1,.988,4.856,8.649,8.649,0,0,1-3.264,4.854l-5.557,4.39q-5.546,4.4-9.669-.228a17.888,17.888,0,0,0-5.81-4.052,19.993,19.993,0,0,0-8.5-1.73q-11.384,0-17.936,6.577a31.946,31.946,0,0,0-8.6,15.37l-5.989,25.41a33.07,33.07,0,0,0-.931,8.43,14.467,14.467,0,0,0,1.9,7.051,12.225,12.225,0,0,0,5.419,4.741,23.187,23.187,0,0,0,9.8,1.73,24.95,24.95,0,0,0,11.277-2.546,58.52,58.52,0,0,0,8.266-4.847q6.488-4.4,9.963,0Z" transform="translate(120.276 20.331)" fill="#d50820"/>
    <path id="Trazado_10" data-name="Trazado 10" d="M1048.539,179.454a5.047,5.047,0,0,1-5.485-6.919l13.628-57.758a19.742,19.742,0,0,0-1.956-15.37q-4.026-6.585-15.422-6.577t-18.523,6.577a30.087,30.087,0,0,0-9.205,15.37l-13.611,57.757a8.591,8.591,0,0,1-8.762,6.919h-7.116a5.04,5.04,0,0,1-5.484-6.919l13.611-57.758a49.892,49.892,0,0,1,6.969-15.945,56.981,56.981,0,0,1,12.037-13.284,57.829,57.829,0,0,1,15.886-9.008,52.793,52.793,0,0,1,18.834-3.354,40.94,40.94,0,0,1,17.25,3.354A29.408,29.408,0,0,1,1078.6,98.833a38.528,38.528,0,0,1-.559,15.945l-13.62,57.757a8.589,8.589,0,0,1-8.757,6.919Z" transform="translate(141.441 20.332)" fill="#d50820"/>
    <path id="Trazado_11" data-name="Trazado 11" d="M1049.827,190.638a5.048,5.048,0,0,1-5.492-6.919l21.24-90.1a8.933,8.933,0,0,1,3.109-5.09,8.842,8.842,0,0,1,5.654-1.844h7.127a5.044,5.044,0,0,1,5.483,6.935l-21.249,90.1a8.573,8.573,0,0,1-8.754,6.919Zm28.323-120.132a5.049,5.049,0,0,1-5.484-6.932l2.724-11.554a8.57,8.57,0,0,1,8.755-6.928h7.117a5.056,5.056,0,0,1,5.492,6.928l-2.733,11.554a8.764,8.764,0,0,1-3.085,5.083,8.856,8.856,0,0,1-5.664,1.844Z" transform="translate(168.353 9.148)" fill="#d50820"/>
    <path id="Trazado_12" data-name="Trazado 12" d="M1060.746,231.942a5.054,5.054,0,0,1-5.484-6.928l33.783-143.24a8.582,8.582,0,0,1,8.748-6.935h39.168a41.193,41.193,0,0,1,16.264,3,28.823,28.823,0,0,1,11.235,8.209,26.494,26.494,0,0,1,5.491,12.468,38.825,38.825,0,0,1-.71,15.6l-5.989,25.41a48.339,48.339,0,0,1-6.774,15.6,52.258,52.258,0,0,1-26.12,20.67,48.906,48.906,0,0,1-16.964,2.994h-23.5a2.724,2.724,0,0,0-2.922,2.317l-10.346,43.9a8.608,8.608,0,0,1-8.756,6.928Zm87.132-117.823q2.07-8.786-2.6-14.213-4.639-5.424-12.957-5.427h-22.547a2.728,2.728,0,0,0-2.921,2.31l-14.166,60.074c-.366,1.537.254,2.3,1.837,2.3h22.545a25.14,25.14,0,0,0,24.815-19.634Z" transform="translate(172.695 20.99)" fill="#fff"/>
    <path id="Trazado_13" data-name="Trazado 13" d="M1137.071,178.813a5.039,5.039,0,0,1-5.483-6.919l13.888-58.916a50.219,50.219,0,0,1,16.452-27.5q12.483-10.619,30.272-10.619h8.553a5.04,5.04,0,0,1,5.484,6.932l-1.355,5.778a8.6,8.6,0,0,1-8.756,6.928H1189a20.388,20.388,0,0,0-14.7,5.427,28.112,28.112,0,0,0-7.742,14.213l-13.612,57.757a8.59,8.59,0,0,1-8.765,6.919Z" transform="translate(203.017 20.973)" fill="#fff"/>
    <path id="Trazado_14" data-name="Trazado 14" d="M1179.034,190.637a5.047,5.047,0,0,1-5.493-6.919l21.248-90.1a8.586,8.586,0,0,1,8.764-6.935h7.112a5.051,5.051,0,0,1,5.483,6.935l-21.249,90.1a8.59,8.59,0,0,1-8.747,6.919Zm28.322-120.132a5.048,5.048,0,0,1-5.483-6.928l2.727-11.554a8.582,8.582,0,0,1,8.755-6.928h7.127a5.049,5.049,0,0,1,5.484,6.928l-2.723,11.55a8.586,8.586,0,0,1-8.749,6.928Z" transform="translate(219.687 9.149)" fill="#fff"/>
    <path id="Trazado_15" data-name="Trazado 15" d="M1265.167,179.454a5.052,5.052,0,0,1-5.491-6.919l13.626-57.758a19.736,19.736,0,0,0-1.956-15.37q-4.04-6.586-15.422-6.577T1237.4,99.407a30.019,30.019,0,0,0-9.2,15.37l-13.619,57.757a8.59,8.59,0,0,1-8.764,6.919h-7.115a5.046,5.046,0,0,1-5.483-6.919l13.618-57.757a49.658,49.658,0,0,1,6.96-15.945,56.924,56.924,0,0,1,12.029-13.284,57.851,57.851,0,0,1,15.895-9.008,52.79,52.79,0,0,1,18.834-3.354,40.891,40.891,0,0,1,17.249,3.354,29.326,29.326,0,0,1,17.4,22.293,38.488,38.488,0,0,1-.548,15.945l-13.626,57.757a8.558,8.558,0,0,1-8.749,6.919Z" transform="translate(227.506 20.332)" fill="#fff"/>
    <g id="Grupo_6" data-name="Grupo 6" transform="translate(620.206 22)">
      <path id="Trazado_16" data-name="Trazado 16" d="M808.652,51.152c-22.39-14.831-46.364-24.681-73.477-28.1-34.358-3.98-64.195,3.386-93.4,21.407-7.467,4.671-14.577,9.809-21.569,15.1,7.886,17.9,20.721,33.06,35.722,45.741a94.738,94.738,0,0,1,30.289,49.185,120.678,120.678,0,0,1,.419,42.5c19.6-7.1,40.259-14.649,61.513-10.959,20.54,5.38,34.185,20.261,43.145,38.475a286.5,286.5,0,0,0,17.039-95.576c.092-25.793-3.115-52.108.321-77.779Z" transform="translate(-620.206 -22)" fill-rule="evenodd" fill="url(#linear-gradient)"/>
      <path id="Trazado_17" data-name="Trazado 17" d="M821.379,56.6q-12.027-6.917-24.394-12.511a195.4,195.4,0,0,0-75.394-14.574c-8.155.408-16.16,1.21-24.034,2.36-22.017,4.228-41.7,11.835-61.888,21.178a116.154,116.154,0,0,0,25.276,52.07,116.086,116.086,0,0,1,25.378,52.02,136.891,136.891,0,0,1,.221,40.709c21.8-5.729,42.917-11.114,65.643-8,21.441,4.294,37.308,15.07,50.887,31.67a334.485,334.485,0,0,0,13.8-73.177c1.571-25.59.586-51.247,2.471-76.792q.8-7.738,2.036-14.951Z" transform="translate(-614.063 -19.015)" fill-rule="evenodd" fill="url(#radial-gradient)"/>
      <path id="Trazado_18" data-name="Trazado 18" d="M673.294,150.964a139.532,139.532,0,0,1-1.218,26.43c21.79-5.7,42.917-11.076,65.642-7.976,21.442,4.306,37.294,15.056,50.887,31.67a334.656,334.656,0,0,0,13.8-73.173c.951-15.544.96-31.114,1.248-46.67C794.493,100.54,760.324,156.288,673.294,150.964Z" transform="translate(-599.599 1.539)" fill-rule="evenodd" fill="url(#linear-gradient-2)"/>
      <path id="Trazado_19" data-name="Trazado 19" d="M688.853,79.434c8.408,1.4,13.677,7.755,13.193,14.356-.523,6.653-7.933,11.811-16.546,10.768-9.341-1.04-16.079-7.976-14.848-15.475,1.688-7.442,10.06-11.524,18.2-9.641Zm92.271-17.86a12.523,12.523,0,0,1,7.152,9.07c.586,3.7-1.425,6.123-4.976,4.837-3.679-.9-7.046-5.388-7.327-9.511C775.38,62.189,777.778,60.161,781.124,61.574Zm2.715,17.987c3.292.912,6.551,5.2,7.406,9.236.523,4.39-1.506,7.266-5.388,6.486-3.592-1.129-6.974-5.472-7.516-9.974-.539-4.48,1.892-6.995,5.5-5.748ZM764.962,55.109a14.114,14.114,0,0,1,7.9,9.817c.263,4.165-2.248,6.643-6.407,5.3-4.255-1.408-7.806-6.38-8.442-10.293C757.78,55.677,761.066,53.623,764.962,55.109ZM766.743,74.1a12.383,12.383,0,0,1,8.179,10.326c.522,4.517-2.342,7.526-6.533,6.69-4.259-1.175-8.163-6.067-8.732-10.738-.215-4.674,3.14-7.266,7.085-6.278Zm2.18,21.644c4.2.815,7.942,5.482,8.468,10.416.815,5.282-2.121,9.176-6.651,8.637-4.611-.606-8.871-5.705-9.347-11.178s3.3-9.011,7.53-7.874Zm2.283,24.436c4.538.535,8.268,5.449,9.041,11.128s-2.592,11-7.1,10.7c-5.015.14-9.57-5.121-9.987-11.458-.406-6.307,3.446-10.872,8.044-10.364ZM745.87,47.787c4.828,1.956,8.561,6.372,8.816,10.682.221,4.284-3.236,6.809-8.086,5.34-4.93-1.861-9.176-7.093-9.4-11.56C737.386,47.829,741.272,46.162,745.87,47.787Zm.95,20.44a12.7,12.7,0,0,1,9.113,11.2c.186,4.7-3.3,7.794-8.553,6.567-5.015-1.269-9.68-6.407-9.8-11.683C737.44,69.037,741.886,66.4,746.82,68.226Zm.668,22.981a12.715,12.715,0,0,1,9.816,11.634c.468,5.536-3.493,9.672-8.82,9.082-5.8-.569-10.818-6.309-10.86-12.472a8.009,8.009,0,0,1,9.863-8.244Zm1.1,26.443c5.69.854,10.072,5.994,10.472,12.355.042,6.435-4.052,12.12-9.844,12.306-6.288-.127-11.258-6.113-11.216-13.231-.331-7.068,4.778-11.926,10.589-11.43ZM723.343,38.992c5.248,2.167,9.613,7.545,9.436,12.006.211,4.515-4.332,6.686-10.08,5.061-5.846-2.027-10.9-7.632-10.6-12.637C712.335,38.767,717.565,36.748,723.343,38.992Zm-.848,21.665c6.117,1.956,10.5,7.266,10.62,12.6-.22,4.959-4.947,8.543-11.144,7.2-6.759-1.748-11.815-7.611-11.5-13.193.34-5.524,6.148-8.2,12.031-6.611Zm-.815,24.921a14.162,14.162,0,0,1,11.056,13.066c.043,6.228-5.218,10.631-11.985,10.045-7.326-.978-12.808-7.5-12.341-14.046.467-6.5,6.457-10.382,13.274-9.066Zm-1.344,29.606a13.323,13.323,0,0,1,12.277,13.81c-.419,6.873-5.969,13.385-13.693,13.406a13.693,13.693,0,0,1-13.274-14.831,13.843,13.843,0,0,1,14.683-12.384ZM692.574,51.85c7.266,2.2,12.485,8.265,12.129,13.843-.361,5.613-7.038,9.415-14.912,7.5-8.146-1.557-14.662-8.7-13.22-14.6C677.6,52.335,685.094,49.6,692.574,51.85Z" transform="translate(-600.221 -15.614)" fill-rule="evenodd" fill="url(#radial-gradient-2)"/>
      <g id="Grupo_5" data-name="Grupo 5" transform="translate(114.544 21.004)">
        <path id="Trazado_20" data-name="Trazado 20" d="M723.188,53.343c-2.634,3.555-9.112,3.354-14.423-.458s-7.484-9.749-4.829-13.318,9.117-3.334,14.433.479S725.854,49.8,723.188,53.343Z" transform="translate(-701.934 -37.032)" fill="#706f6e"/>
        <path id="Trazado_21" data-name="Trazado 21" d="M737.693,59.323c-2.892,3.021-8.684,2.3-12.922-1.633-4.234-3.894-5.31-9.49-2.422-12.51,2.9-2.992,8.7-2.275,12.935,1.636S740.587,56.332,737.693,59.323Z" transform="translate(-694.811 -34.528)" fill="#706f6e"/>
        <path id="Trazado_22" data-name="Trazado 22" d="M748.84,64.614c-2.771,1.917-7.406.2-10.353-3.836-2.917-4.052-3.074-8.892-.288-10.826,2.761-1.909,7.39-.191,10.33,3.852S751.613,62.688,748.84,64.614Z" transform="translate(-688.665 -32.208)" fill="#706f6e"/>
        <path id="Trazado_23" data-name="Trazado 23" d="M760.056,68c-2.273,1.573-6.312-.179-9.014-3.912s-3.059-8.034-.8-9.608,6.288.177,9,3.924C761.962,62.114,762.327,66.425,760.056,68Z" transform="translate(-683.676 -30.328)" fill="#706f6e"/>
        <path id="Trazado_24" data-name="Trazado 24" d="M723,70.335c-3.14,4.184-10.021,4.513-15.333.721-5.3-3.815-7.08-10.293-3.932-14.5,3.13-4.192,10.007-4.519,15.31-.71S726.142,66.122,723,70.335Z" transform="translate(-702.181 -30.615)" fill="#706f6e"/>
        <path id="Trazado_25" data-name="Trazado 25" d="M738.358,94.713c-3.963,2.859-10.241,1.128-14.012-3.852-3.755-5.005-3.607-11.361.356-14.233s10.237-1.142,14,3.869C742.471,85.477,742.327,91.862,738.358,94.713Z" transform="translate(-694.455 -21.851)" fill="#706f6e"/>
        <path id="Trazado_26" data-name="Trazado 26" d="M750.338,97.868c-3.886,1.409-8.688-1.756-10.708-7.1-1.994-5.321-.5-10.8,3.394-12.2s8.7,1.773,10.724,7.109S754.25,96.468,750.338,97.868Z" transform="translate(-687.652 -20.662)" fill="#706f6e"/>
        <path id="Trazado_27" data-name="Trazado 27" d="M732.205,119.088c-6-.14-10.734-5.948-10.564-12.978s5.141-12.608,11.135-12.485,10.721,5.943,10.56,12.968S738.19,119.215,732.205,119.088Z" transform="translate(-694.451 -14.548)" fill="#706f6e"/>
        <path id="Trazado_28" data-name="Trazado 28" d="M750.466,117.845c-4.564.848-9.222-3.334-10.385-9.341s1.579-11.565,6.148-12.422,9.207,3.317,10.386,9.333S755.043,117,750.466,117.845Z" transform="translate(-687.229 -13.615)" fill="#706f6e"/>
        <path id="Trazado_29" data-name="Trazado 29" d="M730.534,139.889c-6.008-.11-10.734-5.905-10.572-12.956.169-7.026,5.159-12.616,11.148-12.468s10.726,5.926,10.555,12.952S736.517,140.024,730.534,139.889Z" transform="translate(-695.118 -6.269)" fill="#706f6e"/>
        <path id="Trazado_30" data-name="Trazado 30" d="M746.749,137.114c-4.636-.323-8.034-5.528-7.6-11.633s4.548-10.783,9.188-10.47,8.036,5.524,7.6,11.633S751.392,137.432,746.749,137.114Z" transform="translate(-687.509 -6.056)" fill="#706f6e"/>
        <path id="Trazado_31" data-name="Trazado 31" d="M738.3,74.5c-2.952,3.063-8.752,2.442-12.939-1.425s-5.17-9.478-2.194-12.541,8.753-2.444,12.935,1.409S741.278,71.431,738.3,74.5Z" transform="translate(-694.526 -28.467)" fill="#706f6e"/>
        <path id="Trazado_32" data-name="Trazado 32" d="M750.563,79.157c-3.088,2.138-8.057.492-11.065-3.665s-2.974-9.263.11-11.417,8.048-.5,11.074,3.674C753.7,71.891,753.638,77.014,750.563,79.157Z" transform="translate(-688.241 -26.663)" fill="#706f6e"/>
        <path id="Trazado_33" data-name="Trazado 33" d="M762.178,82.271c-2.554,1.688-6.894-.3-9.7-4.4s-3.013-8.776-.463-10.462,6.9.3,9.707,4.417S764.747,80.6,762.178,82.271Z" transform="translate(-683.09 -25.2)" fill="#706f6e"/>
      </g>
    </g>
    <path id="Trazado_34" data-name="Trazado 34" d="M871.841,166.405h-4.751q-9.021,0-11.138-4.618t-.2-12.706l10.382-44.039.718-3.045h8.462l5.31-20.065h-9.057L873,75.814l.015.032,2.888-12.24a5.051,5.051,0,0,0-5.483-6.936h-7.126a8.582,8.582,0,0,0-8.747,6.936l-3.812,16.165a2.717,2.717,0,0,1-2.912,2.31H832c-.049.31-.074.6-.14.929-2.31,11.8-14.688,16.628-23.167,18.584a9.146,9.146,0,0,0,1.559.123h32.926c1.575,0,2.187.776,1.827,2.31l-10.9,46.2q-3.978,16.865,2.219,26.339t23.99,9.467h6.887a8.572,8.572,0,0,0,8.755-6.919l1.363-5.778a5.055,5.055,0,0,0-5.483-6.936Z" transform="translate(74.888 13.747)" fill="#d50820"/>
    <path id="Trazado_35" data-name="Trazado 35" d="M1311.459,166.4h-4.741q-9.021,0-11.138-4.618t-.2-12.706l10.379-44.039.718-3.045h8.457l5.3-20.065h-9.05l1.445-6.119.017.032,2.888-12.24a5.06,5.06,0,0,0-5.491-6.936h-7.126a8.6,8.6,0,0,0-8.763,6.936l-3.8,16.165a2.72,2.72,0,0,1-2.921,2.31h-15.806c-.034.31-.066.6-.131.929-2.317,11.8-14.687,16.628-23.157,18.584a9.115,9.115,0,0,0,1.551.123h32.924c1.576,0,2.187.776,1.817,2.31l-10.886,46.2q-3.989,16.865,2.22,26.339,6.167,9.475,23.99,9.467h6.887a8.575,8.575,0,0,0,8.747-6.919l1.371-5.778a5.06,5.06,0,0,0-5.5-6.936Z" transform="translate(249.556 13.747)" fill="#fff"/>
  </g>
</svg>
