<svg xmlns="http://www.w3.org/2000/svg" xmlns:xlink="http://www.w3.org/1999/xlink" width="226.085" height="54.998" viewBox="0 0 226.085 54.998">
  <defs>
    <linearGradient id="linear-gradient" y1="0.5" x2="1" y2="0.5" gradientUnits="objectBoundingBox">
      <stop offset="0" stop-color="#006bab"/>
      <stop offset="0.25" stop-color="#73ae2b"/>
      <stop offset="0.5" stop-color="#f5e422"/>
      <stop offset="0.551" stop-color="#f4df20"/>
      <stop offset="0.605" stop-color="#f2d31d"/>
      <stop offset="0.659" stop-color="#f0be18"/>
      <stop offset="0.713" stop-color="#eca110"/>
      <stop offset="0.75" stop-color="#ea8a0a"/>
      <stop offset="1" stop-color="#da0e1c"/>
    </linearGradient>
    <radialGradient id="radial-gradient" cx="0.5" cy="0.5" r="0.498" gradientTransform="translate(0.063 0.235) scale(1.034 0.978)" gradientUnits="objectBoundingBox">
      <stop offset="0" stop-color="#fff"/>
      <stop offset="1" stop-color="#fff"/>
    </radialGradient>
    <linearGradient id="linear-gradient-2" x1="-2.871" y1="15.966" x2="-2.607" y2="16.89" gradientUnits="objectBoundingBox">
      <stop offset="0" stop-color="#fff" stop-opacity="0"/>
      <stop offset="0.203" stop-color="#fcfcfc" stop-opacity="0.024"/>
      <stop offset="0.369" stop-color="#f4f4f4" stop-opacity="0.094"/>
      <stop offset="0.523" stop-color="#e6e6e6" stop-opacity="0.216"/>
      <stop offset="0.668" stop-color="#d2d2d3" stop-opacity="0.384"/>
      <stop offset="0.809" stop-color="#b9b8ba" stop-opacity="0.604"/>
      <stop offset="0.943" stop-color="#9a9a9c" stop-opacity="0.871"/>
      <stop offset="1" stop-color="#8c8b8e"/>
    </linearGradient>
    <radialGradient id="radial-gradient-2" cx="0.024" cy="0.042" r="1.374" gradientTransform="translate(2.648 4.506) rotate(-90) scale(1 0.863)" gradientUnits="objectBoundingBox">
      <stop offset="0" stop-color="#a9abad"/>
      <stop offset="1" stop-color="#fff"/>
    </radialGradient>
  </defs>
  <g id="icCompleto" transform="translate(-620.206 -22)">
    <g id="Grupo_6" data-name="Grupo 6" transform="translate(620.206 22)">
      <path id="Trazado_16" data-name="Trazado 16" d="M665.073,28.941a40.337,40.337,0,0,0-17.494-6.691,33.258,33.258,0,0,0-22.237,5.1c-1.778,1.112-3.471,2.335-5.135,3.6a30.7,30.7,0,0,0,8.505,10.89,22.556,22.556,0,0,1,7.212,11.71,28.73,28.73,0,0,1,.1,10.12c4.666-1.69,9.585-3.488,14.646-2.609,4.89,1.281,8.139,4.824,10.272,9.16A68.214,68.214,0,0,0,665,47.459c.022-6.141-.742-12.406.077-18.518Z" transform="translate(-620.206 -22)" fill-rule="evenodd" fill="url(#linear-gradient)"/>
      <path id="Trazado_17" data-name="Trazado 17" d="M679.884,35.963q-2.863-1.647-5.808-2.979a46.523,46.523,0,0,0-17.951-3.47c-1.942.1-3.847.288-5.722.562a62.755,62.755,0,0,0-14.735,5.042,27.654,27.654,0,0,0,6.018,12.4A27.639,27.639,0,0,1,647.729,59.9a32.6,32.6,0,0,1,.053,9.692c5.19-1.364,10.218-2.646,15.629-1.9a20.176,20.176,0,0,1,12.116,7.54,79.639,79.639,0,0,0,3.287-17.423c.374-6.093.139-12.2.588-18.283q.191-1.842.485-3.56Z" transform="translate(-630.525 -27.013)" fill-rule="evenodd" fill="url(#radial-gradient)"/>
      <path id="Trazado_18" data-name="Trazado 18" d="M672.365,97.845a33.227,33.227,0,0,1-.29,6.293c5.188-1.357,10.218-2.637,15.629-1.9a20.185,20.185,0,0,1,12.116,7.54,79.682,79.682,0,0,0,3.286-17.422c.227-3.7.229-7.408.3-11.112C701.221,85.84,693.086,99.113,672.365,97.845Z" transform="translate(-654.819 -61.536)" fill-rule="evenodd" fill="url(#linear-gradient-2)"/>
      <path id="Trazado_19" data-name="Trazado 19" d="M674.876,47.921a3.431,3.431,0,0,1,3.141,3.418c-.124,1.584-1.889,2.812-3.939,2.564-2.224-.248-3.828-1.9-3.535-3.684a3.488,3.488,0,0,1,4.333-2.3Zm21.969-4.252a2.982,2.982,0,0,1,1.7,2.159c.139.88-.339,1.458-1.185,1.152a2.663,2.663,0,0,1-1.745-2.265C695.477,43.815,696.048,43.333,696.844,43.669Zm.646,4.283a3.05,3.05,0,0,1,1.763,2.2c.124,1.045-.359,1.73-1.283,1.544a2.965,2.965,0,0,1-1.789-2.375c-.128-1.067.45-1.665,1.309-1.369ZM693,42.13a3.36,3.36,0,0,1,1.881,2.337c.063.992-.535,1.582-1.525,1.263a3.4,3.4,0,0,1-2.01-2.451A1.119,1.119,0,0,1,693,42.13Zm.424,4.521a2.948,2.948,0,0,1,1.947,2.459c.124,1.076-.558,1.792-1.555,1.593a3.224,3.224,0,0,1-2.079-2.557,1.327,1.327,0,0,1,1.687-1.495Zm.519,5.153a2.862,2.862,0,0,1,2.016,2.48c.194,1.258-.505,2.185-1.584,2.056a2.951,2.951,0,0,1-2.225-2.661c-.113-1.3.787-2.145,1.793-1.875Zm.544,5.818a2.906,2.906,0,0,1,2.153,2.649c.184,1.352-.617,2.619-1.69,2.547-1.194.033-2.279-1.219-2.378-2.728s.82-2.589,1.915-2.467Zm-6.032-17.236a3.244,3.244,0,0,1,2.1,2.543c.053,1.02-.771,1.621-1.925,1.272a3.558,3.558,0,0,1-2.238-2.752C686.431,40.4,687.356,40,688.451,40.386Zm.226,4.866a3.025,3.025,0,0,1,2.17,2.665,1.507,1.507,0,0,1-2.036,1.564,3.2,3.2,0,0,1-2.333-2.782A1.5,1.5,0,0,1,688.677,45.253Zm.159,5.472a3.027,3.027,0,0,1,2.337,2.77,1.886,1.886,0,0,1-2.1,2.162,3.065,3.065,0,0,1-2.586-2.97,1.907,1.907,0,0,1,2.348-1.963Zm.261,6.3a3.077,3.077,0,0,1,2.493,2.942,2.7,2.7,0,0,1-2.344,2.93,2.966,2.966,0,0,1-2.67-3.15A2.422,2.422,0,0,1,689.1,57.02Zm-6.01-18.728a3.494,3.494,0,0,1,2.247,2.858c.05,1.075-1.031,1.592-2.4,1.2-1.392-.483-2.595-1.817-2.523-3.009C680.467,38.239,681.712,37.758,683.087,38.293Zm-.2,5.158a3.481,3.481,0,0,1,2.528,3,2.01,2.01,0,0,1-2.653,1.715,3.433,3.433,0,0,1-2.738-3.141c.081-1.315,1.464-1.954,2.864-1.574Zm-.194,5.933a3.372,3.372,0,0,1,2.632,3.111,2.449,2.449,0,0,1-2.853,2.392,3.333,3.333,0,0,1-2.938-3.344,2.489,2.489,0,0,1,3.16-2.158Zm-.32,7.049a3.172,3.172,0,0,1,2.923,3.288,3.358,3.358,0,0,1-3.26,3.192,3.26,3.26,0,0,1-3.16-3.531,3.3,3.3,0,0,1,3.5-2.949Zm-6.61-15.079c1.73.523,2.973,1.968,2.888,3.3s-1.676,2.242-3.55,1.786c-1.94-.371-3.491-2.072-3.148-3.476C672.2,41.469,673.981,40.818,675.762,41.354Z" transform="translate(-653.773 -32.726)" fill-rule="evenodd" fill="url(#radial-gradient-2)"/>
      <g id="Grupo_5" data-name="Grupo 5" transform="translate(27.271 5.001)">
        <path id="Trazado_20" data-name="Trazado 20" d="M707.657,40.915c-.627.846-2.169.8-3.434-.109s-1.782-2.321-1.15-3.171,2.171-.794,3.436.114S708.291,40.071,707.657,40.915Z" transform="translate(-702.596 -37.032)" fill="#706f6e"/>
        <path id="Trazado_21" data-name="Trazado 21" d="M724.769,47.141c-.689.719-2.068.547-3.077-.389s-1.264-2.26-.577-2.979,2.071-.542,3.08.39S725.458,46.429,724.769,47.141Z" transform="translate(-714.559 -41.238)" fill="#706f6e"/>
        <path id="Trazado_22" data-name="Trazado 22" d="M739.21,52.85c-.66.456-1.763.048-2.465-.913s-.732-2.117-.069-2.578,1.76-.046,2.46.917S739.87,52.391,739.21,52.85Z" transform="translate(-724.883 -45.134)" fill="#706f6e"/>
        <path id="Trazado_23" data-name="Trazado 23" d="M751.447,57.262c-.541.375-1.5-.043-2.146-.932s-.728-1.913-.19-2.288,1.5.042,2.142.934S751.987,56.886,751.447,57.262Z" transform="translate(-733.262 -48.292)" fill="#706f6e"/>
        <path id="Trazado_24" data-name="Trazado 24" d="M707.138,57.267a2.665,2.665,0,0,1-3.651.172,2.526,2.526,0,0,1-.936-3.453,2.652,2.652,0,0,1,3.645-.169A2.527,2.527,0,0,1,707.138,57.267Z" transform="translate(-702.181 -47.81)" fill="#706f6e"/>
        <path id="Trazado_25" data-name="Trazado 25" d="M725.609,79.876a2.527,2.527,0,0,1-3.336-.917c-.894-1.192-.859-2.705.085-3.389a2.516,2.516,0,0,1,3.334.921C726.589,77.677,726.555,79.2,725.609,79.876Z" transform="translate(-715.157 -62.529)" fill="#706f6e"/>
        <path id="Trazado_26" data-name="Trazado 26" d="M741.508,82.908c-.925.335-2.069-.418-2.549-1.691s-.118-2.571.808-2.9,2.07.422,2.553,1.693S742.44,82.575,741.508,82.908Z" transform="translate(-726.584 -64.527)" fill="#706f6e"/>
        <path id="Trazado_27" data-name="Trazado 27" d="M724.153,99.685a3.071,3.071,0,1,1,2.65-2.975A2.833,2.833,0,0,1,724.153,99.685Z" transform="translate(-715.164 -74.796)" fill="#706f6e"/>
        <path id="Trazado_28" data-name="Trazado 28" d="M742.35,101.178c-1.086.2-2.2-.794-2.472-2.224s.376-2.754,1.464-2.958,2.192.79,2.473,2.222S743.44,100.978,742.35,101.178Z" transform="translate(-727.294 -76.362)" fill="#706f6e"/>
        <path id="Trazado_29" data-name="Trazado 29" d="M722.476,120.516a3.066,3.066,0,1,1,2.65-2.97A2.822,2.822,0,0,1,722.476,120.516Z" transform="translate(-714.044 -88.702)" fill="#706f6e"/>
        <path id="Trazado_30" data-name="Trazado 30" d="M740.929,120.262c-1.1-.077-1.913-1.316-1.81-2.77s1.083-2.567,2.188-2.493,1.913,1.315,1.81,2.77S742.034,120.338,740.929,120.262Z" transform="translate(-726.825 -89.059)" fill="#706f6e"/>
        <path id="Trazado_31" data-name="Trazado 31" d="M725.459,62.377a2.274,2.274,0,0,1-3.081-.339c-1-.921-1.231-2.257-.522-2.986a2.275,2.275,0,0,1,3.08.335C725.932,60.3,726.168,61.647,725.459,62.377Z" transform="translate(-715.037 -51.418)" fill="#706f6e"/>
        <path id="Trazado_32" data-name="Trazado 32" d="M740.433,66.946a2.045,2.045,0,0,1-2.634-.873c-.716-.99-.708-2.205.026-2.718a2.043,2.043,0,0,1,2.637.875A1.943,1.943,0,0,1,740.433,66.946Z" transform="translate(-725.595 -54.447)" fill="#706f6e"/>
        <path id="Trazado_33" data-name="Trazado 33" d="M753.076,70.494c-.608.4-1.641-.071-2.309-1.047s-.717-2.09-.11-2.491,1.642.071,2.311,1.052S753.688,70.1,753.076,70.494Z" transform="translate(-734.246 -56.905)" fill="#706f6e"/>
      </g>
    </g>
    <g id="Grupo_77" data-name="Grupo 77" transform="translate(682.914 29.66)">
      <path id="Trazado_8" data-name="Trazado 8" d="M876.967,93.09a1.175,1.175,0,0,1,.222,1.1,2.585,2.585,0,0,1-.754,1.154,14.762,14.762,0,0,1-3.932,2.533,12.929,12.929,0,0,1-5.529,1.154,10.269,10.269,0,0,1-4.092-.742,6.967,6.967,0,0,1-2.761-2.063,6.829,6.829,0,0,1-1.366-3.081,9.057,9.057,0,0,1,.148-3.738l1.53-6.491a13.123,13.123,0,0,1,1.539-3.769,12.024,12.024,0,0,1,2.654-3.107,12.536,12.536,0,0,1,3.6-2.093,12.224,12.224,0,0,1,4.391-.769,9.717,9.717,0,0,1,4.058.77,7.013,7.013,0,0,1,2.7,2.091,6.749,6.749,0,0,1,1.3,3.107,9.684,9.684,0,0,1-.183,3.769l-.777,3.3a2.049,2.049,0,0,1-2.087,1.651H864.917a.648.648,0,0,0-.7.55l-.233.991a4.375,4.375,0,0,0,.441,3.52q.933,1.431,3.647,1.431a7.281,7.281,0,0,0,3.509-.744,12.97,12.97,0,0,0,2.141-1.4,2.147,2.147,0,0,1,1.38-.579,1.309,1.309,0,0,1,1.006.521Zm-1.558-10.174a4.817,4.817,0,0,0-.342-3.577q-.837-1.484-3.551-1.484a5.385,5.385,0,0,0-4.08,1.484,7.6,7.6,0,0,0-1.916,3.577l-.067.274c-.085.366.058.55.435.55h8.764a.643.643,0,0,0,.692-.55Z" transform="translate(-842.015 -63.81)" fill="#fff"/>
      <path id="Trazado_9" data-name="Trazado 9" d="M940,93.583a1.114,1.114,0,0,1,.194,1.1,2.837,2.837,0,0,1-.785,1.154,13.962,13.962,0,0,1-3.472,2.145,11.374,11.374,0,0,1-4.851,1.045,9.885,9.885,0,0,1-4.192-.8,6.834,6.834,0,0,1-2.689-2.145,6.687,6.687,0,0,1-1.2-3.163,10.739,10.739,0,0,1,.247-3.8l1.426-6.05a12.521,12.521,0,0,1,1.6-3.8,12.772,12.772,0,0,1,2.782-3.163,13.509,13.509,0,0,1,3.7-2.145,12.118,12.118,0,0,1,4.428-.8,8.842,8.842,0,0,1,3.936.8,7.241,7.241,0,0,1,2.535,1.951,1.287,1.287,0,0,1,.235,1.156,2.059,2.059,0,0,1-.777,1.156l-1.323,1.045a1.5,1.5,0,0,1-2.3-.054,4.258,4.258,0,0,0-1.383-.965,4.76,4.76,0,0,0-2.024-.412,5.758,5.758,0,0,0-4.27,1.566,7.607,7.607,0,0,0-2.048,3.659l-1.426,6.05a7.87,7.87,0,0,0-.222,2.007,3.444,3.444,0,0,0,.453,1.679,2.912,2.912,0,0,0,1.29,1.129,5.521,5.521,0,0,0,2.333.412,5.941,5.941,0,0,0,2.685-.606,13.943,13.943,0,0,0,1.968-1.154q1.544-1.047,2.372,0Z" transform="translate(-884.932 -63.808)" fill="#fff"/>
      <path id="Trazado_10" data-name="Trazado 10" d="M993.43,98.478a1.2,1.2,0,0,1-1.306-1.647l3.245-13.751a4.7,4.7,0,0,0-.466-3.66q-.959-1.568-3.672-1.566a6.258,6.258,0,0,0-4.41,1.566,7.164,7.164,0,0,0-2.192,3.66l-3.241,13.751a2.045,2.045,0,0,1-2.086,1.647h-1.694a1.2,1.2,0,0,1-1.306-1.647l3.241-13.751a11.877,11.877,0,0,1,1.659-3.8,13.566,13.566,0,0,1,2.866-3.163,13.771,13.771,0,0,1,3.782-2.145,12.569,12.569,0,0,1,4.484-.8,9.748,9.748,0,0,1,4.107.8,7,7,0,0,1,4.146,5.308,9.172,9.172,0,0,1-.133,3.8l-3.243,13.751a2.045,2.045,0,0,1-2.085,1.647Z" transform="translate(-920.481 -63.809)" fill="#fff"/>
      <path id="Trazado_11" data-name="Trazado 11" d="M1045.347,79.693a1.2,1.2,0,0,1-1.308-1.647l5.057-21.453a2.127,2.127,0,0,1,.74-1.212,2.106,2.106,0,0,1,1.346-.439h1.7a1.2,1.2,0,0,1,1.305,1.651l-5.059,21.453a2.041,2.041,0,0,1-2.084,1.647Zm6.743-28.6a1.2,1.2,0,0,1-1.306-1.65l.649-2.751a2.04,2.04,0,0,1,2.085-1.649h1.694a1.2,1.2,0,0,1,1.307,1.649l-.651,2.751a2.087,2.087,0,0,1-.735,1.21,2.108,2.108,0,0,1-1.348.439Z" transform="translate(-965.684 -45.025)" fill="#fff"/>
      <path id="Trazado_34" data-name="Trazado 34" d="M823.731,82.744H822.6q-2.148,0-2.652-1.1a4.747,4.747,0,0,1-.049-3.025l2.472-10.485.171-.725h2.015l1.264-4.777h-2.156l.342-1.457,0,.008.688-2.914a1.2,1.2,0,0,0-1.305-1.651h-1.7a2.043,2.043,0,0,0-2.083,1.651l-.908,3.849a.647.647,0,0,1-.693.55h-3.766c-.012.074-.018.143-.033.221-.55,2.809-3.5,3.959-5.516,4.425a2.176,2.176,0,0,0,.371.029h7.839c.375,0,.521.185.435.55l-2.595,11q-.947,4.015.528,6.271t5.712,2.254h1.64a2.041,2.041,0,0,0,2.085-1.647l.324-1.376a1.2,1.2,0,0,0-1.305-1.651Z" transform="translate(-808.697 -52.75)" fill="#fff"/>
    </g>
    <g id="Grupo_78" data-name="Grupo 78" transform="translate(764.812 29.661)">
      <path id="Trazado_12" data-name="Trazado 12" d="M1056.272,112.238a1.2,1.2,0,0,1-1.306-1.649l8.043-34.1a2.043,2.043,0,0,1,2.083-1.651h9.325a9.807,9.807,0,0,1,3.872.715,6.862,6.862,0,0,1,2.675,1.955,6.309,6.309,0,0,1,1.307,2.969,9.243,9.243,0,0,1-.169,3.715l-1.426,6.05a11.508,11.508,0,0,1-1.613,3.715,12.442,12.442,0,0,1-6.219,4.921,11.644,11.644,0,0,1-4.039.713h-5.6a.649.649,0,0,0-.7.552l-2.463,10.453a2.049,2.049,0,0,1-2.085,1.649Zm20.745-28.052a3.636,3.636,0,0,0-.618-3.384,3.842,3.842,0,0,0-3.085-1.292h-5.368a.65.65,0,0,0-.7.55l-3.373,14.3c-.087.366.06.548.438.548h5.368a5.985,5.985,0,0,0,5.908-4.674Z" transform="translate(-1054.874 -64.916)" fill="#3d3d3d"/>
      <path id="Trazado_13" data-name="Trazado 13" d="M1132.594,99.555a1.2,1.2,0,0,1-1.305-1.647l3.307-14.027a11.956,11.956,0,0,1,3.917-6.547,10.748,10.748,0,0,1,7.208-2.528h2.036a1.2,1.2,0,0,1,1.306,1.65l-.323,1.376a2.048,2.048,0,0,1-2.085,1.649h-1.7a4.854,4.854,0,0,0-3.5,1.292,6.693,6.693,0,0,0-1.843,3.384l-3.241,13.751a2.045,2.045,0,0,1-2.087,1.647Z" transform="translate(-1105.804 -64.887)" fill="#3d3d3d"/>
      <path id="Trazado_14" data-name="Trazado 14" d="M1174.553,79.7a1.2,1.2,0,0,1-1.308-1.647L1178.3,56.6a2.044,2.044,0,0,1,2.087-1.651h1.693a1.2,1.2,0,0,1,1.305,1.651l-5.059,21.453a2.045,2.045,0,0,1-2.083,1.647Zm6.743-28.6a1.2,1.2,0,0,1-1.305-1.649l.649-2.751a2.043,2.043,0,0,1,2.084-1.649h1.7a1.2,1.2,0,0,1,1.306,1.649l-.649,2.75A2.044,2.044,0,0,1,1183,51.092Z" transform="translate(-1133.804 -45.027)" fill="#3d3d3d"/>
      <path id="Trazado_15" data-name="Trazado 15" d="M1210.055,98.478a1.2,1.2,0,0,1-1.307-1.647l3.244-13.751a4.7,4.7,0,0,0-.466-3.659q-.962-1.568-3.672-1.566a6.265,6.265,0,0,0-4.41,1.566,7.147,7.147,0,0,0-2.19,3.659l-3.243,13.751a2.045,2.045,0,0,1-2.086,1.647h-1.694a1.2,1.2,0,0,1-1.306-1.647l3.242-13.751a11.829,11.829,0,0,1,1.657-3.8,13.558,13.558,0,0,1,2.864-3.163,13.772,13.772,0,0,1,3.784-2.145,12.568,12.568,0,0,1,4.484-.8,9.737,9.737,0,0,1,4.107.8,6.982,6.982,0,0,1,4.143,5.308,9.166,9.166,0,0,1-.13,3.8l-3.244,13.751a2.038,2.038,0,0,1-2.083,1.647Z" transform="translate(-1146.937 -63.81)" fill="#3d3d3d"/>
      <path id="Trazado_35" data-name="Trazado 35" d="M1263.362,82.745h-1.129q-2.148,0-2.652-1.1a4.74,4.74,0,0,1-.047-3.025l2.471-10.485.171-.725h2.013l1.261-4.777H1263.3l.344-1.457,0,.008.688-2.914a1.2,1.2,0,0,0-1.307-1.651h-1.7a2.048,2.048,0,0,0-2.086,1.651l-.906,3.849a.648.648,0,0,1-.7.55h-3.763c-.008.074-.016.143-.031.221-.552,2.809-3.5,3.959-5.513,4.425a2.168,2.168,0,0,0,.369.029h7.839c.375,0,.521.185.432.55l-2.592,11q-.95,4.015.529,6.271t5.712,2.254h1.64a2.042,2.042,0,0,0,2.083-1.647l.326-1.376a1.2,1.2,0,0,0-1.309-1.651Z" transform="translate(-1183.973 -52.751)" fill="#3d3d3d"/>
    </g>
  </g>
</svg>
